<mxfile host="app.diagrams.net" modified="2024-01-07T07:39:56.904Z" agent="Mozilla/5.0 (Windows NT 10.0; Win64; x64) AppleWebKit/537.36 (KHTML, like Gecko) Chrome/120.0.0.0 Safari/537.36 Edg/120.0.0.0" etag="F5fB-MfdKa58i91ax3V4" version="22.1.17" type="github">
  <diagram name="Страница — 1" id="HQKHW07Xj2Qq4fhBGWb-">
    <mxGraphModel dx="872" dy="481" grid="1" gridSize="10" guides="1" tooltips="1" connect="1" arrows="1" fold="1" page="1" pageScale="1" pageWidth="827" pageHeight="1169" math="0" shadow="0">
      <root>
        <mxCell id="0" />
        <mxCell id="1" parent="0" />
        <mxCell id="FXutSjHY37aG9M0LGGG5-3" value="" style="edgeStyle=orthogonalEdgeStyle;rounded=0;orthogonalLoop=1;jettySize=auto;html=1;" edge="1" parent="1" source="FXutSjHY37aG9M0LGGG5-1" target="FXutSjHY37aG9M0LGGG5-2">
          <mxGeometry relative="1" as="geometry" />
        </mxCell>
        <mxCell id="FXutSjHY37aG9M0LGGG5-1" value="Начало" style="ellipse;whiteSpace=wrap;html=1;" vertex="1" parent="1">
          <mxGeometry x="330" y="10" width="120" height="80" as="geometry" />
        </mxCell>
        <mxCell id="FXutSjHY37aG9M0LGGG5-2" value="originalarray" style="whiteSpace=wrap;html=1;" vertex="1" parent="1">
          <mxGeometry x="330" y="120" width="120" height="60" as="geometry" />
        </mxCell>
      </root>
    </mxGraphModel>
  </diagram>
</mxfile>
